<svg xmlns="http://www.w3.org/2000/svg" viewBox="0 0 64 64" role="img" aria-label="Mon Histoire Chantée">
  <defs>
    <linearGradient id="g" x1="8" y1="6" x2="58" y2="58" gradientUnits="userSpaceOnUse">
      <stop stop-color="#c84e7e"/>
      <stop offset="1" stop-color="#642640"/>
    </linearGradient>
  </defs>
  <rect width="64" height="64" rx="20" fill="url(#g)"/>
  <path d="M37.5 14.5v25.2a7.2 7.2 0 1 1-3.8-6.3V20.2l15.2-3.5v18.2a7.2 7.2 0 1 1-3.8-6.3V13.1l-7.6 1.8Z" fill="#FFF8F4"/>
  <path d="M13.5 22.5c4.4-3.2 8.8-3.2 13.2 0M12.5 29.5c5.1-3.8 10.2-3.8 15.3 0" fill="none" stroke="#F2C77D" stroke-width="2.4" stroke-linecap="round"/>
  <path d="m17 13 1.1 3.1 3.1 1.1-3.1 1.1L17 21.5l-1.1-3.2-3.1-1.1 3.1-1.1L17 13Z" fill="#F2C77D"/>
</svg>
